<svg xmlns="http://www.w3.org/2000/svg" width="1200" height="800" viewBox="0 0 1200 800">
<rect width="100%" height="100%" fill="white"/>
<text x="600.0" y="30" text-anchor="middle" font-size="24" font-family="Arial">Batch Size Experiment: val_loss vs Elapsed Seconds</text>
<line x1="90.00" y1="60" x2="90.00" y2="720" stroke="#e0e0e0" stroke-width="1"/>
<text x="90.00" y="748" text-anchor="middle" font-size="14" font-family="Arial">0.3s</text>
<line x1="196.25" y1="60" x2="196.25" y2="720" stroke="#e0e0e0" stroke-width="1"/>
<text x="196.25" y="748" text-anchor="middle" font-size="14" font-family="Arial">27.5s</text>
<line x1="302.50" y1="60" x2="302.50" y2="720" stroke="#e0e0e0" stroke-width="1"/>
<text x="302.50" y="748" text-anchor="middle" font-size="14" font-family="Arial">54.7s</text>
<line x1="408.75" y1="60" x2="408.75" y2="720" stroke="#e0e0e0" stroke-width="1"/>
<text x="408.75" y="748" text-anchor="middle" font-size="14" font-family="Arial">81.9s</text>
<line x1="515.00" y1="60" x2="515.00" y2="720" stroke="#e0e0e0" stroke-width="1"/>
<text x="515.00" y="748" text-anchor="middle" font-size="14" font-family="Arial">109.1s</text>
<line x1="621.25" y1="60" x2="621.25" y2="720" stroke="#e0e0e0" stroke-width="1"/>
<text x="621.25" y="748" text-anchor="middle" font-size="14" font-family="Arial">136.3s</text>
<line x1="727.50" y1="60" x2="727.50" y2="720" stroke="#e0e0e0" stroke-width="1"/>
<text x="727.50" y="748" text-anchor="middle" font-size="14" font-family="Arial">163.5s</text>
<line x1="833.75" y1="60" x2="833.75" y2="720" stroke="#e0e0e0" stroke-width="1"/>
<text x="833.75" y="748" text-anchor="middle" font-size="14" font-family="Arial">190.7s</text>
<line x1="940.00" y1="60" x2="940.00" y2="720" stroke="#e0e0e0" stroke-width="1"/>
<text x="940.00" y="748" text-anchor="middle" font-size="14" font-family="Arial">217.9s</text>
<line x1="90" y1="720.00" x2="940" y2="720.00" stroke="#e0e0e0" stroke-width="1"/>
<text x="78" y="725.00" text-anchor="end" font-size="14" font-family="Arial">2.22</text>
<line x1="90" y1="625.71" x2="940" y2="625.71" stroke="#e0e0e0" stroke-width="1"/>
<text x="78" y="630.71" text-anchor="end" font-size="14" font-family="Arial">3.27</text>
<line x1="90" y1="531.43" x2="940" y2="531.43" stroke="#e0e0e0" stroke-width="1"/>
<text x="78" y="536.43" text-anchor="end" font-size="14" font-family="Arial">4.33</text>
<line x1="90" y1="437.14" x2="940" y2="437.14" stroke="#e0e0e0" stroke-width="1"/>
<text x="78" y="442.14" text-anchor="end" font-size="14" font-family="Arial">5.38</text>
<line x1="90" y1="342.86" x2="940" y2="342.86" stroke="#e0e0e0" stroke-width="1"/>
<text x="78" y="347.86" text-anchor="end" font-size="14" font-family="Arial">6.44</text>
<line x1="90" y1="248.57" x2="940" y2="248.57" stroke="#e0e0e0" stroke-width="1"/>
<text x="78" y="253.57" text-anchor="end" font-size="14" font-family="Arial">7.49</text>
<line x1="90" y1="154.29" x2="940" y2="154.29" stroke="#e0e0e0" stroke-width="1"/>
<text x="78" y="159.29" text-anchor="end" font-size="14" font-family="Arial">8.55</text>
<line x1="90" y1="60.00" x2="940" y2="60.00" stroke="#e0e0e0" stroke-width="1"/>
<text x="78" y="65.00" text-anchor="end" font-size="14" font-family="Arial">9.60</text>
<line x1="90" y1="720" x2="940" y2="720" stroke="black" stroke-width="2"/>
<line x1="90" y1="60" x2="90" y2="720" stroke="black" stroke-width="2"/>
<text x="515.0" y="780" text-anchor="middle" font-size="18" font-family="Arial">Elapsed seconds</text>
<text x="28" y="390.0" text-anchor="middle" font-size="18" font-family="Arial" transform="rotate(-90 28 390.0)">val_loss</text>
<text x="960" y="70" font-size="18" font-family="Arial">Runs</text>
<polyline fill="none" stroke="#1f77b4" stroke-width="2.5" points="90.00,90.73 222.31,563.31 326.43,593.09 429.16,605.82 526.65,637.13 631.78,626.26 729.36,620.72 830.96,643.84 940.00,650.97"/>
<circle cx="90.00" cy="90.73" r="3" fill="#1f77b4"/>
<circle cx="222.31" cy="563.31" r="3" fill="#1f77b4"/>
<circle cx="326.43" cy="593.09" r="3" fill="#1f77b4"/>
<circle cx="429.16" cy="605.82" r="3" fill="#1f77b4"/>
<circle cx="526.65" cy="637.13" r="3" fill="#1f77b4"/>
<circle cx="631.78" cy="626.26" r="3" fill="#1f77b4"/>
<circle cx="729.36" cy="620.72" r="3" fill="#1f77b4"/>
<circle cx="830.96" cy="643.84" r="3" fill="#1f77b4"/>
<circle cx="940.00" cy="650.97" r="3" fill="#1f77b4"/>
<line x1="960" y1="99" x2="988" y2="99" stroke="#1f77b4" stroke-width="3"/>
<text x="996" y="104" font-size="15" font-family="Arial">bs1</text>
<polyline fill="none" stroke="#d62728" stroke-width="2.5" points="90.17,90.00 106.84,585.04 122.06,625.95 138.62,628.17 153.67,647.59 170.21,664.06 185.24,667.65 201.79,690.00 216.54,681.28"/>
<circle cx="90.17" cy="90.00" r="3" fill="#d62728"/>
<circle cx="106.84" cy="585.04" r="3" fill="#d62728"/>
<circle cx="122.06" cy="625.95" r="3" fill="#d62728"/>
<circle cx="138.62" cy="628.17" r="3" fill="#d62728"/>
<circle cx="153.67" cy="647.59" r="3" fill="#d62728"/>
<circle cx="170.21" cy="664.06" r="3" fill="#d62728"/>
<circle cx="185.24" cy="667.65" r="3" fill="#d62728"/>
<circle cx="201.79" cy="690.00" r="3" fill="#d62728"/>
<circle cx="216.54" cy="681.28" r="3" fill="#d62728"/>
<line x1="960" y1="123" x2="988" y2="123" stroke="#d62728" stroke-width="3"/>
<text x="996" y="128" font-size="15" font-family="Arial">bs16</text>
<polyline fill="none" stroke="#2ca02c" stroke-width="2.5" points="90.74,90.21 106.27,532.29 120.31,593.86 135.89,610.98 150.10,633.76 165.74,641.20 179.82,656.49 195.55,665.25 209.34,669.69"/>
<circle cx="90.74" cy="90.21" r="3" fill="#2ca02c"/>
<circle cx="106.27" cy="532.29" r="3" fill="#2ca02c"/>
<circle cx="120.31" cy="593.86" r="3" fill="#2ca02c"/>
<circle cx="135.89" cy="610.98" r="3" fill="#2ca02c"/>
<circle cx="150.10" cy="633.76" r="3" fill="#2ca02c"/>
<circle cx="165.74" cy="641.20" r="3" fill="#2ca02c"/>
<circle cx="179.82" cy="656.49" r="3" fill="#2ca02c"/>
<circle cx="195.55" cy="665.25" r="3" fill="#2ca02c"/>
<circle cx="209.34" cy="669.69" r="3" fill="#2ca02c"/>
<line x1="960" y1="147" x2="988" y2="147" stroke="#2ca02c" stroke-width="3"/>
<text x="996" y="152" font-size="15" font-family="Arial">bs32</text>
<polyline fill="none" stroke="#9467bd" stroke-width="2.5" points="92.07,90.31 107.81,436.82 122.24,549.91 138.16,578.92 152.62,594.21 168.60,608.94 182.93,616.31 198.69,625.76 212.35,625.93"/>
<circle cx="92.07" cy="90.31" r="3" fill="#9467bd"/>
<circle cx="107.81" cy="436.82" r="3" fill="#9467bd"/>
<circle cx="122.24" cy="549.91" r="3" fill="#9467bd"/>
<circle cx="138.16" cy="578.92" r="3" fill="#9467bd"/>
<circle cx="152.62" cy="594.21" r="3" fill="#9467bd"/>
<circle cx="168.60" cy="608.94" r="3" fill="#9467bd"/>
<circle cx="182.93" cy="616.31" r="3" fill="#9467bd"/>
<circle cx="198.69" cy="625.76" r="3" fill="#9467bd"/>
<circle cx="212.35" cy="625.93" r="3" fill="#9467bd"/>
<line x1="960" y1="171" x2="988" y2="171" stroke="#9467bd" stroke-width="3"/>
<text x="996" y="176" font-size="15" font-family="Arial">bs64</text>
<polyline fill="none" stroke="#ff7f0e" stroke-width="2.5" points="96.57,90.34 121.94,430.96 146.89,475.41 172.70,539.85 196.35,561.14 221.55,577.32 245.43,583.34 272.60,587.48 293.08,591.97"/>
<circle cx="96.57" cy="90.34" r="3" fill="#ff7f0e"/>
<circle cx="121.94" cy="430.96" r="3" fill="#ff7f0e"/>
<circle cx="146.89" cy="475.41" r="3" fill="#ff7f0e"/>
<circle cx="172.70" cy="539.85" r="3" fill="#ff7f0e"/>
<circle cx="196.35" cy="561.14" r="3" fill="#ff7f0e"/>
<circle cx="221.55" cy="577.32" r="3" fill="#ff7f0e"/>
<circle cx="245.43" cy="583.34" r="3" fill="#ff7f0e"/>
<circle cx="272.60" cy="587.48" r="3" fill="#ff7f0e"/>
<circle cx="293.08" cy="591.97" r="3" fill="#ff7f0e"/>
<line x1="960" y1="195" x2="988" y2="195" stroke="#ff7f0e" stroke-width="3"/>
<text x="996" y="200" font-size="15" font-family="Arial">bs128</text>
</svg>